<svg width="390" height="844" viewBox="0 0 390 844" fill="none" xmlns="http://www.w3.org/2000/svg">
<rect width="390" height="844" fill="white"/>
<path d="M151.486 375.666V377.294H147.306V391H145.304V377.294H141.102V375.666H151.486ZM163.344 391L159.692 384.73H157.272V391H155.27V375.666H160.22C161.379 375.666 162.354 375.864 163.146 376.26C163.953 376.656 164.554 377.191 164.95 377.866C165.346 378.541 165.544 379.311 165.544 380.176C165.544 381.232 165.236 382.163 164.62 382.97C164.019 383.777 163.109 384.312 161.892 384.576L165.742 391H163.344ZM157.272 383.124H160.22C161.305 383.124 162.119 382.86 162.662 382.332C163.205 381.789 163.476 381.071 163.476 380.176C163.476 379.267 163.205 378.563 162.662 378.064C162.134 377.565 161.32 377.316 160.22 377.316H157.272V383.124ZM171.977 375.666V391H169.975V375.666H171.977ZM186.961 380.154C186.961 381.43 186.521 382.493 185.641 383.344C184.775 384.18 183.448 384.598 181.659 384.598H178.711V391H176.709V375.666H181.659C183.389 375.666 184.702 376.084 185.597 376.92C186.506 377.756 186.961 378.834 186.961 380.154ZM181.659 382.948C182.773 382.948 183.595 382.706 184.123 382.222C184.651 381.738 184.915 381.049 184.915 380.154C184.915 378.262 183.829 377.316 181.659 377.316H178.711V382.948H181.659ZM190.021 383.322C190.021 381.826 190.358 380.484 191.033 379.296C191.708 378.093 192.624 377.155 193.783 376.48C194.956 375.805 196.254 375.468 197.677 375.468C199.349 375.468 200.808 375.871 202.055 376.678C203.302 377.485 204.211 378.629 204.783 380.11H202.385C201.96 379.186 201.344 378.475 200.537 377.976C199.745 377.477 198.792 377.228 197.677 377.228C196.606 377.228 195.646 377.477 194.795 377.976C193.944 378.475 193.277 379.186 192.793 380.11C192.309 381.019 192.067 382.09 192.067 383.322C192.067 384.539 192.309 385.61 192.793 386.534C193.277 387.443 193.944 388.147 194.795 388.646C195.646 389.145 196.606 389.394 197.677 389.394C198.792 389.394 199.745 389.152 200.537 388.668C201.344 388.169 201.96 387.458 202.385 386.534H204.783C204.211 388.001 203.302 389.137 202.055 389.944C200.808 390.736 199.349 391.132 197.677 391.132C196.254 391.132 194.956 390.802 193.783 390.142C192.624 389.467 191.708 388.536 191.033 387.348C190.358 386.16 190.021 384.818 190.021 383.322ZM211.041 375.666V385.368C211.041 386.732 211.371 387.744 212.031 388.404C212.706 389.064 213.637 389.394 214.825 389.394C215.999 389.394 216.915 389.064 217.575 388.404C218.25 387.744 218.587 386.732 218.587 385.368V375.666H220.589V385.346C220.589 386.622 220.333 387.7 219.819 388.58C219.306 389.445 218.609 390.091 217.729 390.516C216.864 390.941 215.889 391.154 214.803 391.154C213.718 391.154 212.735 390.941 211.855 390.516C210.99 390.091 210.301 389.445 209.787 388.58C209.289 387.7 209.039 386.622 209.039 385.346V375.666H211.041ZM232.927 383.102C233.484 383.19 233.99 383.417 234.445 383.784C234.914 384.151 235.281 384.605 235.545 385.148C235.824 385.691 235.963 386.27 235.963 386.886C235.963 387.663 235.765 388.367 235.369 388.998C234.973 389.614 234.394 390.105 233.631 390.472C232.883 390.824 231.996 391 230.969 391H225.249V375.666H230.749C231.79 375.666 232.678 375.842 233.411 376.194C234.144 376.531 234.694 376.993 235.061 377.58C235.428 378.167 235.611 378.827 235.611 379.56C235.611 380.469 235.362 381.225 234.863 381.826C234.379 382.413 233.734 382.838 232.927 383.102ZM227.251 382.288H230.617C231.556 382.288 232.282 382.068 232.795 381.628C233.308 381.188 233.565 380.579 233.565 379.802C233.565 379.025 233.308 378.416 232.795 377.976C232.282 377.536 231.541 377.316 230.573 377.316H227.251V382.288ZM230.793 389.35C231.79 389.35 232.568 389.115 233.125 388.646C233.682 388.177 233.961 387.524 233.961 386.688C233.961 385.837 233.668 385.17 233.081 384.686C232.494 384.187 231.71 383.938 230.727 383.938H227.251V389.35H230.793ZM242.063 377.294V382.42H247.651V384.07H242.063V389.35H248.311V391H240.061V375.644H248.311V377.294H242.063Z" fill="black"/>
</svg>
