<svg width="108" height="17" viewBox="0 0 108 17" fill="none" xmlns="http://www.w3.org/2000/svg">
<path d="M10.4856 0.665999V2.294H6.30563V16H4.30363V2.294H0.101634V0.665999H10.4856ZM22.344 16L18.692 9.73H16.272V16H14.27V0.665999H19.22C20.3786 0.665999 21.354 0.863999 22.146 1.26C22.9526 1.656 23.554 2.19133 23.95 2.866C24.346 3.54067 24.544 4.31067 24.544 5.176C24.544 6.232 24.236 7.16333 23.62 7.97C23.0186 8.77667 22.1093 9.312 20.892 9.576L24.742 16H22.344ZM16.272 8.124H19.22C20.3053 8.124 21.1193 7.86 21.662 7.332C22.2046 6.78933 22.476 6.07067 22.476 5.176C22.476 4.26667 22.2046 3.56267 21.662 3.064C21.134 2.56533 20.32 2.316 19.22 2.316H16.272V8.124ZM30.9767 0.665999V16H28.9747V0.665999H30.9767ZM45.9608 5.154C45.9608 6.43 45.5208 7.49333 44.6408 8.344C43.7755 9.18 42.4481 9.598 40.6588 9.598H37.7108V16H35.7088V0.665999H40.6588C42.3895 0.665999 43.7021 1.084 44.5968 1.92C45.5061 2.756 45.9608 3.834 45.9608 5.154ZM40.6588 7.948C41.7735 7.948 42.5948 7.706 43.1228 7.222C43.6508 6.738 43.9148 6.04867 43.9148 5.154C43.9148 3.262 42.8295 2.316 40.6588 2.316H37.7108V7.948H40.6588ZM49.021 8.322C49.021 6.826 49.3584 5.484 50.033 4.296C50.7077 3.09333 51.6244 2.15467 52.783 1.48C53.9564 0.805333 55.2544 0.467999 56.677 0.467999C58.349 0.467999 59.8084 0.871333 61.055 1.678C62.3017 2.48467 63.211 3.62867 63.783 5.11H61.385C60.9597 4.186 60.3437 3.47467 59.537 2.976C58.745 2.47733 57.7917 2.228 56.677 2.228C55.6064 2.228 54.6457 2.47733 53.795 2.976C52.9444 3.47467 52.277 4.186 51.793 5.11C51.309 6.01933 51.067 7.09 51.067 8.322C51.067 9.53933 51.309 10.61 51.793 11.534C52.277 12.4433 52.9444 13.1473 53.795 13.646C54.6457 14.1447 55.6064 14.394 56.677 14.394C57.7917 14.394 58.745 14.152 59.537 13.668C60.3437 13.1693 60.9597 12.458 61.385 11.534H63.783C63.211 13.0007 62.3017 14.1373 61.055 14.944C59.8084 15.736 58.349 16.132 56.677 16.132C55.2544 16.132 53.9564 15.802 52.783 15.142C51.6244 14.4673 50.7077 13.536 50.033 12.348C49.3584 11.16 49.021 9.818 49.021 8.322ZM70.0412 0.665999V10.368C70.0412 11.732 70.3712 12.744 71.0312 13.404C71.7058 14.064 72.6372 14.394 73.8252 14.394C74.9985 14.394 75.9152 14.064 76.5752 13.404C77.2498 12.744 77.5872 11.732 77.5872 10.368V0.665999H79.5892V10.346C79.5892 11.622 79.3325 12.7 78.8192 13.58C78.3058 14.4453 77.6092 15.0907 76.7292 15.516C75.8638 15.9413 74.8885 16.154 73.8032 16.154C72.7178 16.154 71.7352 15.9413 70.8552 15.516C69.9898 15.0907 69.3005 14.4453 68.7872 13.58C68.2885 12.7 68.0392 11.622 68.0392 10.346V0.665999H70.0412ZM91.9269 8.102C92.4842 8.19 92.9902 8.41733 93.4449 8.784C93.9142 9.15067 94.2809 9.60533 94.5449 10.148C94.8236 10.6907 94.9629 11.27 94.9629 11.886C94.9629 12.6633 94.7649 13.3673 94.3689 13.998C93.9729 14.614 93.3936 15.1053 92.6309 15.472C91.8829 15.824 90.9956 16 89.9689 16H84.2489V0.665999H89.7489C90.7902 0.665999 91.6776 0.841999 92.4109 1.194C93.1442 1.53133 93.6942 1.99333 94.0609 2.58C94.4276 3.16667 94.6109 3.82667 94.6109 4.56C94.6109 5.46933 94.3616 6.22467 93.8629 6.826C93.3789 7.41267 92.7336 7.838 91.9269 8.102ZM86.2509 7.288H89.6169C90.5556 7.288 91.2816 7.068 91.7949 6.628C92.3082 6.188 92.5649 5.57933 92.5649 4.802C92.5649 4.02467 92.3082 3.416 91.7949 2.976C91.2816 2.536 90.5409 2.316 89.5729 2.316H86.2509V7.288ZM89.7929 14.35C90.7902 14.35 91.5676 14.1153 92.1249 13.646C92.6822 13.1767 92.9609 12.524 92.9609 11.688C92.9609 10.8373 92.6676 10.17 92.0809 9.686C91.4942 9.18733 90.7096 8.938 89.7269 8.938H86.2509V14.35H89.7929ZM101.063 2.294V7.42H106.651V9.07H101.063V14.35H107.311V16H99.0611V0.644H107.311V2.294H101.063Z" fill="black"/>
</svg>
