<?xml version="1.0" standalone="no"?>
<!DOCTYPE svg PUBLIC "-//W3C//DTD SVG 20010904//EN"
 "http://www.w3.org/TR/2001/REC-SVG-20010904/DTD/svg10.dtd">
<svg version="1.0" xmlns="http://www.w3.org/2000/svg"
 width="512.000000pt" height="512.000000pt" viewBox="0 0 512.000000 512.000000"
 preserveAspectRatio="xMidYMid meet">

<g transform="translate(0.000000,512.000000) scale(0.100000,-0.100000)"
fill="#000000" stroke="none">
<path d="M3910 4589 c-56 -25 -86 -53 -113 -104 -19 -35 -23 -61 -27 -206 l-5
-167 -90 59 c-450 298 -979 400 -1510 294 -512 -103 -976 -417 -1268 -860
-433 -657 -436 -1533 -7 -2184 87 -133 159 -222 269 -331 481 -479 1176 -681
1841 -533 163 36 275 75 429 149 499 240 864 655 1036 1179 54 162 82 304 96
488 14 180 3 234 -66 302 -100 101 -250 95 -348 -14 -45 -50 -53 -81 -66 -256
-26 -326 -121 -577 -317 -830 -212 -275 -517 -469 -869 -551 -110 -26 -137
-28 -320 -29 -154 0 -220 4 -288 18 -636 129 -1110 615 -1218 1248 -18 106
-20 149 -16 294 10 307 86 545 254 800 88 133 282 327 413 414 524 346 1180
344 1703 -7 l71 -47 -225 -5 c-209 -5 -227 -7 -272 -28 -118 -59 -167 -204
-108 -320 25 -48 77 -97 123 -116 56 -24 1030 -24 1086 0 47 19 97 67 125 119
22 40 22 46 22 555 0 509 0 515 -22 555 -28 52 -78 100 -125 119 -52 22 -134
20 -188 -5z"/>
</g>
</svg>
