<?xml version="1.0" standalone="no"?>
<!DOCTYPE svg PUBLIC "-//W3C//DTD SVG 20010904//EN"
 "http://www.w3.org/TR/2001/REC-SVG-20010904/DTD/svg10.dtd">
<svg version="1.0" xmlns="http://www.w3.org/2000/svg"
 width="128.000000pt" height="128.000000pt" viewBox="0 0 128.000000 128.000000"
 preserveAspectRatio="xMidYMid meet">

<g transform="translate(0.000000,128.000000) scale(0.100000,-0.100000)"
fill="#000000" stroke="none">
<path d="M1 1053 c1 -126 4 -217 6 -203 2 14 13 52 25 85 61 175 217 308 398
338 14 2 -77 5 -202 6 l-228 1 1 -227z"/>
<path d="M600 1273 c49 -7 146 -46 195 -78 110 -71 201 -208 226 -340 21 -115
-6 -260 -68 -358 -13 -21 -23 -42 -21 -47 2 -5 81 -87 176 -183 l172 -174 0
593 0 594 -352 -1 c-194 -1 -342 -4 -328 -6z"/>
<path d="M393 1132 c-102 -36 -186 -113 -232 -211 -23 -49 -26 -69 -26 -156 0
-93 2 -105 33 -167 38 -78 110 -149 192 -187 48 -23 68 -26 155 -26 93 0 105
2 166 32 80 39 150 111 187 191 24 50 27 69 27 157 0 88 -3 107 -27 157 -37
80 -107 152 -186 190 -83 41 -206 50 -289 20z"/>
<path d="M1 353 l-1 -353 594 0 593 0 -174 173 c-96 94 -178 173 -183 175 -5
2 -26 -8 -47 -21 -85 -53 -150 -71 -268 -71 -91 0 -120 4 -170 24 -181 70
-308 220 -338 400 -2 14 -5 -134 -6 -327z"/>
<path d="M1258 19 c-17 -18 -17 -19 2 -19 13 0 20 7 20 20 0 24 0 24 -22 -1z"/>
</g>
</svg>
